<svg width="72" height="72" viewBox="0 0 72 72" fill="none" xmlns="http://www.w3.org/2000/svg">
<path d="M36 6C24.402 6 15 15.402 15 27C15 27.126 15.0011 27.2517 15.0033 27.3772C9.82595 28.7082 6 33.4073 6 39C6 45.6274 11.3726 51 18 51H51C59.2843 51 66 44.2843 66 36C66 29.62 62.0168 24.1703 56.4016 22.002C54.1592 12.817 45.8757 6 36 6Z" fill="#F5F6FB"/>
<path fill-rule="evenodd" clip-rule="evenodd" d="M17.25 27C17.25 16.6447 25.6447 8.25 36 8.25C44.8146 8.25 52.2136 14.3346 54.2158 22.5356C54.3905 23.251 54.9041 23.8357 55.5911 24.101C60.3678 25.9454 63.75 30.5805 63.75 36C63.75 40.1699 61.7506 43.8721 58.6487 46.2021C57.6551 46.9484 57.4547 48.3588 58.201 49.3524C58.9473 50.346 60.3577 50.5464 61.3513 49.8001C65.5361 46.6568 68.25 41.645 68.25 36C68.25 29.0742 64.1693 23.1065 58.2878 20.3612C55.4304 10.7562 46.536 3.75 36 3.75C23.5836 3.75 13.4404 13.483 12.7838 25.7356C7.49496 27.8173 3.75 32.969 3.75 39C3.75 44.2773 6.6199 48.8817 10.8734 51.3422C11.949 51.9645 13.3254 51.5969 13.9476 50.5212C14.5698 49.4456 14.2023 48.0692 13.1266 47.447C10.2065 45.7578 8.25 42.606 8.25 39C8.25 34.459 11.3564 30.6379 15.5635 29.5563C16.5724 29.297 17.2713 28.3791 17.253 27.3376C17.251 27.2253 17.25 27.1128 17.25 27ZM32.432 48.75L40.591 40.591C41.4697 39.7123 41.4697 38.2877 40.591 37.409C39.7123 36.5303 38.2877 36.5303 37.409 37.409L25.409 49.409C24.7655 50.0525 24.573 51.0203 24.9213 51.861C25.2695 52.7018 26.09 53.25 27 53.25H39.568L31.409 61.409C30.5303 62.2877 30.5303 63.7123 31.409 64.591C32.2877 65.4697 33.7123 65.4697 34.591 64.591L46.591 52.591C47.2345 51.9475 47.427 50.9797 47.0787 50.139C46.7305 49.2982 45.91 48.75 45 48.75H32.432Z" fill="#5A5A89"/>
</svg>
