<svg width="72" height="72" viewBox="0 0 72 72" fill="none" xmlns="http://www.w3.org/2000/svg">
<path d="M9 24L24 9H48L63 24V48L48 63H24L9 48V24Z" fill="#FF708B"/>
<path fill-rule="evenodd" clip-rule="evenodd" d="M24 6.75C23.4033 6.75 22.831 6.98705 22.409 7.40901L7.40901 22.409C6.98705 22.831 6.75 23.4033 6.75 24V48C6.75 48.5967 6.98705 49.169 7.40901 49.591L22.409 64.591C22.831 65.0129 23.4033 65.25 24 65.25H48C48.5967 65.25 49.169 65.0129 49.591 64.591L64.591 49.591C65.0129 49.169 65.25 48.5967 65.25 48V24C65.25 23.4033 65.0129 22.831 64.591 22.409L49.591 7.40901C49.169 6.98705 48.5967 6.75 48 6.75H24ZM11.25 24.932L24.932 11.25H47.068L60.75 24.932V47.068L47.068 60.75H24.932L11.25 47.068V24.932ZM36 21.75C37.2426 21.75 38.25 22.7574 38.25 24V39C38.25 40.2426 37.2426 41.25 36 41.25C34.7574 41.25 33.75 40.2426 33.75 39V24C33.75 22.7574 34.7574 21.75 36 21.75ZM39 48C39 49.6569 37.6569 51 36 51C34.3431 51 33 49.6569 33 48C33 46.3431 34.3431 45 36 45C37.6569 45 39 46.3431 39 48Z" fill="#5A5A89"/>
</svg>
