<svg width="120" height="126" viewBox="0 0 120 126" fill="none" xmlns="http://www.w3.org/2000/svg">
<path d="M31.1046 62.7393C31.1046 47.0103 43.8881 34.2857 59.6171 34.2857C67.511 34.2857 74.6391 37.4668 79.7643 42.6509L103.623 18.38C92.2533 7.0103 76.5832 0 59.2047 0C31.8704 0 8.60088 17.4963 0 41.8851C12.6657 58.0265 30.9278 62.6804 31.1046 62.7393Z" fill="#574B88"/>
<path d="M79.9411 82.7104C74.757 87.9534 67.5699 91.2524 59.6171 91.2524C43.8881 91.2524 31.1635 78.5278 31.1046 62.7988C30.9278 62.8577 12.6657 67.5116 0 83.653C8.60088 108.042 31.8704 125.538 59.2047 125.538C76.701 125.538 92.5478 118.351 103.917 106.805L79.9411 82.7104Z" fill="#574B88"/>
<path d="M85.1836 62.8575C85.3603 62.9164 104.153 68.3951 116.288 85.5379C118.645 78.4098 119.999 70.3391 119.999 62.9164C119.999 54.8457 118.762 47.5409 116.288 40.2949C103.799 57.7323 85.3603 62.7986 85.1836 62.8575Z" fill="#EB9D00"/>
</svg>
